<?xml  version="1.0" encoding="UTF-8"?>
<!DOCTYPE svg PUBLIC "-//W3C//DTD SVG 1.0//EN" "http://www.w3.org/TR/2001/REC-SVG-20010904/DTD/svg10.dtd" >
<svg xmlns="http://www.w3.org/2000/svg" >
<metadata>
<version>1.0</version>
<id><![CDATA[Proxima N W01 At Bold]]></id>
<vendor>Monotype Imaging Inc.</vendor>
<credits>
<name>Fonts.com WebFonts</name>
<URL>http://webfonts.fonts.com</URL>
<role>Home of the Web fonts</role>
</credits>
<license>
<URL>http://webfonts.fonts.com/Legal</URL>
</license>
<copyright><![CDATA[Copyright (c) Mark Simonson, 2005. All rights reserved.]]></copyright>
<trademark><![CDATA[Proxima Nova is a trademark of Mark Simonson.]]></trademark>
<licensee>
<name></name>
</licensee>
</metadata>
<defs >
<font horiz-adv-x="532" id="3f6b8eb6-2678-4b83-ab47-6cbfa9dcc9db">
<font-face font-family="" panose-1="2 0 5 6 3 0 0 2 0 4" ascent="741" descent="-259" units-per-em="1000" alphabetic="0">
</font-face>
<missing-glyph horiz-adv-x="0" />

<glyph unicode="&#xA;" />
<glyph unicode="&#xD;" horiz-adv-x="0" />
<glyph unicode=" " horiz-adv-x="257" />
<glyph unicode="!" horiz-adv-x="255" d="M72 218L51 667H204L184 218H72ZM128 -10Q111 -10 97 -4T72 14T55 39T48 70Q48 103 71 127T128 151Q161 151 185 127T209 70Q209 54 203 40T185 14T159 -3T128 -10Z"  />
<glyph unicode="&quot;" horiz-adv-x="406" d="M85 375Q73 435 64 484Q60 505 57 525T50 563T46 592T44 608Q44 637 64 657T113 677Q141 677 161 657T182 608Q182 604 180 592T175 563T169 526T161 484Q152 435 141 375H85ZM266 375Q254 435 245 484Q241 505 238 525T231 563T227 592T225 608Q225 637 245 657T294 677Q323 677 343 657T363 608Q363 604 361 592T356 563T350 526T342 484Q333 435 322 375H266Z"  />
<glyph unicode="#" horiz-adv-x="618" d="M244 0L302 170H207L150 0H56L113 170H17L43 251H141L195 416H98L123 496H223L279 667H373L317 496H411L467 667H562L504 496H601L578 416H477L422 251H523L498 170H395L339 0H244ZM383 416H289L235 251H328L383 416Z"  />
<glyph unicode="$" horiz-adv-x="614" d="M267 -10Q188 -3 130 24T30 94L108 205Q136 176 176 152T267 119V274Q228 283 190 296T121 332T71 389T52 474Q52 512 66 546T109 607T176 652T267 675V768H361V673Q484 659 565 584L486 478Q459 503 427 519T361 543V405Q400 395 439 382T509 345T561 288T581 202Q581 160 568 124T527 60T458 14T361 -10V-100H267V-10ZM436 188Q436 213 415 226T361 251V117Q399 125 417 144T436 188ZM198 485Q198 463 217 451T267 428V549Q234 544 216 528T198 485Z"  />
<glyph unicode="%" horiz-adv-x="758" d="M195 345Q157 345 126 357T72 392T38 445T26 510Q26 545 38 575T72 628T125 664T195 677Q234 677 265 664T318 629T353 576T365 510Q365 475 353 445T319 393T265 358T195 345ZM130 0L556 667H632L205 0H130ZM562 -12Q524 -12 493 0T439 35T405 88T393 153Q393 188 405 219T439 272T492 308T562 321Q600 321 631 308T685 273T720 219T732 153Q732 118 720 88T686 36T632 1T562 -12ZM195 423Q230 423 252 446T275 510Q275 552 253 575T195 599Q161 599 139 576T116 510Q116 470 138 447T195 423ZM562 66Q597 66 619 89T642 153Q642 195 620 218T562 242Q527 242 505 219T483 153Q483 112 505 89T562 66Z"  />
<glyph unicode="&amp;" horiz-adv-x="647" d="M476 0Q455 20 426 50Q388 21 343 5T244 -12Q198 -12 158 0T88 36T41 96T24 181Q24 219 35 248T67 301T113 341T168 374Q148 411 136 447T124 517Q124 551 138 580T177 630T237 664T314 677Q349 677 381 668T437 640T475 596T489 536Q489 498 475 470T438 421T386 383T326 353Q341 333 355 315T383 281Q411 245 440 212Q461 245 476 279T501 342L602 295Q584 255 561 214T509 135Q539 102 571 69T638 0H476ZM262 88Q288 88 312 97T358 122Q335 147 316 169T284 207Q267 227 250 249T217 295Q191 276 175 252T159 193Q159 169 167 150T190 117T222 96T262 88ZM250 514Q250 494 257 471T279 424Q321 444 350 468T379 529Q379 555 362 570T320 585Q291 585 271 566T250 514Z"  />
<glyph unicode="&apos;" horiz-adv-x="225" d="M85 375Q73 435 64 484Q60 505 57 525T50 563T46 592T44 608Q44 637 64 657T113 677Q141 677 161 657T182 608Q182 604 180 592T175 563T169 526T161 484Q152 435 141 375H85Z"  />
<glyph unicode="(" horiz-adv-x="297" d="M200 -199Q163 -158 134 -107T84 2T52 121T41 243Q41 303 52 364T83 483T133 592T200 685L279 625Q254 579 235 535T204 445T185 349T178 243Q178 187 184 138T203 42T235 -48T279 -137L200 -199Z"  />
<glyph unicode=")" horiz-adv-x="298" d="M18 -137Q43 -92 62 -48T94 42T113 137T119 243Q119 299 113 348T94 444T62 535T18 625L97 685Q134 644 163 593T214 484T246 365T257 243Q257 183 246 122T214 3T164 -106T97 -199L18 -137Z"  />
<glyph unicode="*" horiz-adv-x="351" d="M144 366L149 476L57 417L25 471L122 522L25 572L57 626L149 567L144 677H207L202 567L294 626L326 572L229 522L326 471L294 417L202 476L207 366H144Z"  />
<glyph unicode="+" horiz-adv-x="504" d="M296 298V95H209V298H29V377H209V573H296V377H475V298H296Z"  />
<glyph unicode="&#x2c;" horiz-adv-x="255" d="M215 49Q215 -8 187 -56T112 -137L57 -92Q69 -86 81 -76T104 -52T123 -25T134 2Q132 1 127 0T115 -1Q86 -1 67 19T47 71Q47 104 70 127T126 151Q161 151 188 125T215 49Z"  />
<glyph unicode="-" horiz-adv-x="300" d="M30 188V296H270V188H30Z"  />
<glyph unicode="." horiz-adv-x="257" d="M128 -11Q95 -11 71 13T47 70Q47 103 71 127T128 151Q161 151 185 127T209 70Q209 37 185 13T128 -11Z"  />
<glyph unicode="/" horiz-adv-x="329" d="M0 -20L237 687H329L92 -20H0Z"  />
<glyph unicode="0" horiz-adv-x="620" d="M310 -12Q238 -12 186 17T101 96T51 206T34 333Q34 397 50 459T100 569T186 647T310 677Q382 677 434 648T519 570T569 459T586 333Q586 268 570 207T520 96T434 18T310 -12ZM310 114Q346 114 370 131T411 177T434 247T441 333Q441 379 434 419T412 488T371 534T310 551Q274 551 250 534T209 488T186 419T179 333Q179 287 186 247T209 178T249 131T310 114Z"  />
<glyph unicode="1" horiz-adv-x="411" d="M203 0V484L92 371L11 456L221 667H345V0H203Z"  />
<glyph unicode="2" horiz-adv-x="600" d="M47 0V112Q149 188 217 241T325 333T383 402T400 464Q400 486 391 502T367 529T333 545T292 551Q235 551 191 530T113 474L32 568Q81 625 150 651T289 677Q343 677 389 663T470 621T524 554T544 464Q544 421 527 381T476 299T392 215T277 125H549V0H47Z"  />
<glyph unicode="3" horiz-adv-x="587" d="M283 -12Q191 -12 124 19T20 95L95 190Q129 154 179 134T278 114Q339 114 371 137T404 199Q404 239 372 257T270 276Q259 276 247 276T222 276T201 275T187 274V402Q191 402 201 402T224 401T248 401T270 401Q326 401 360 418T394 472Q394 512 358 531T270 551Q172 551 100 482L29 571Q70 617 133 647T284 677Q342 677 389 665T468 629T518 572T536 496Q536 464 524 439T491 394T444 362T390 344Q415 341 443 330T493 299T531 250T546 184Q546 141 528 105T475 43T392 3T283 -12Z"  />
<glyph unicode="4" horiz-adv-x="597" d="M344 0V138H25V250L290 667H486V263H572V138H486V0H344ZM344 541L164 263H344V541Z"  />
<glyph unicode="5" horiz-adv-x="608" d="M306 -12Q218 -12 155 14T49 88L128 187Q162 152 207 133T305 114Q365 114 397 143T429 213Q429 258 398 285T309 312Q267 312 233 300T169 258L70 285V667H528V542H212V379Q236 403 274 419T359 435Q401 435 440 420T508 378T555 310T573 219Q573 166 554 124T500 51T416 5T306 -12Z"  />
<glyph unicode="6" horiz-adv-x="608" d="M322 -12Q246 -12 192 15T102 89T51 198T34 332Q34 408 55 471T115 580T213 651T345 677Q406 677 456 659T542 608L478 499Q451 525 421 538T345 551Q308 551 278 537T225 497T191 437T178 362Q178 353 179 348Q191 365 208 380T248 408T297 427T350 434Q395 434 436 420T508 379T559 311T578 217Q578 168 560 126T507 54T426 6T322 -12ZM314 114Q343 114 365 123T402 146T425 177T433 212Q433 238 423 257T395 288T356 306T310 312Q272 312 238 296T179 249Q181 225 189 201T214 158T254 126T314 114Z"  />
<glyph unicode="7" horiz-adv-x="545" d="M121 0L360 542H24V667H525V568L277 0H121Z"  />
<glyph unicode="8" horiz-adv-x="606" d="M303 -12Q250 -12 202 -1T117 34T57 91T35 173Q35 203 46 230T76 278T122 316T178 344Q150 354 126 368T84 401T56 445T46 501Q46 548 68 581T128 636T210 667T303 677Q349 677 395 667T477 636T537 582T560 501Q560 470 550 445T521 401T479 368T428 344Q458 333 484 317T529 279T560 230T571 173Q571 126 549 92T490 34T404 0T303 -12ZM303 400Q318 403 337 408T374 423T403 445T415 477Q415 512 384 531T303 551Q253 551 222 532T190 477Q190 459 202 446T231 423T268 409T303 400ZM303 114Q328 114 351 119T390 135T417 160T427 193Q427 214 414 229T381 254T340 271T303 280Q287 278 266 272T226 255T193 229T179 193Q179 157 214 136T303 114Z"  />
<glyph unicode="9" horiz-adv-x="608" d="M263 -11Q202 -11 152 7T67 58L130 167Q157 141 187 128T263 115Q304 115 335 131T388 173T419 233T430 303V318Q418 301 400 286T360 258T311 239T258 232Q213 232 172 246T100 287T50 355T31 449Q31 498 49 539T101 612T182 660T286 678Q362 678 416 651T506 577T557 467T574 334Q574 258 553 195T493 86T395 15T263 -11ZM298 354Q336 354 370 370T429 417Q427 441 419 465T394 508T354 540T294 552Q265 552 243 543T206 520T183 489T175 454Q175 428 185 409T213 378T252 360T298 354Z"  />
<glyph unicode=":" horiz-adv-x="246" d="M128 328Q95 328 71 352T47 409Q47 442 71 466T128 490Q161 490 185 466T209 409Q209 376 185 352T128 328ZM128 -11Q95 -11 71 13T47 70Q47 103 71 127T128 151Q161 151 185 127T209 70Q209 37 185 13T128 -11Z"  />
<glyph unicode=";" horiz-adv-x="255" d="M128 328Q95 328 71 352T47 410Q47 443 71 466T128 490Q161 490 185 467T209 410Q209 377 185 353T128 328ZM215 52Q215 -4 187 -52T112 -133L57 -88Q69 -82 81 -72T104 -48T123 -21T134 6Q132 5 127 4T115 3Q86 3 67 23T47 75Q47 108 70 131T126 155Q161 155 188 129T215 52Z"  />
<glyph unicode="&lt;" horiz-adv-x="504" d="M29 289V381L475 580V486L120 334L475 184V90L29 289Z"  />
<glyph unicode="=" horiz-adv-x="504" d="M29 389V468H475V389H29ZM29 201V279H475V201H29Z"  />
<glyph unicode="&gt;" horiz-adv-x="504" d="M29 90V184L384 334L29 486V580L475 381V289L29 90Z"  />
<glyph unicode="?" horiz-adv-x="456" d="M178 204Q145 240 145 293Q145 337 168 364T218 412T269 450T292 494Q292 517 274 534T213 551Q175 551 144 535T90 489L9 580Q49 628 106 652T228 677Q276 677 314 666T380 633T421 583T436 519Q436 482 424 456T393 411T353 376T313 346T282 315T269 278Q269 266 274 255T288 236L178 204ZM226 -11Q193 -11 169 13T145 70Q145 103 169 127T226 151Q259 151 283 127T307 70Q307 37 283 13T226 -11Z"  />
<glyph unicode="@" horiz-adv-x="783" d="M352 -70Q284 -70 226 -46T126 20T59 120T35 244Q35 324 68 395T155 521T282 606T432 638Q504 638 562 614T661 548T725 451T747 332Q747 269 729 223T681 146T617 100T549 85Q504 85 481 107T452 159L451 165Q425 128 387 107T307 85Q271 85 242 97T193 132T163 186T152 253Q152 303 171 347T221 425T293 478T378 498Q424 498 455 479T503 431L514 484H627L576 240Q575 236 574 229T573 216Q573 193 583 182T610 171Q625 171 641 180T672 208T695 258T704 332Q704 391 685 440T629 524T542 579T428 599Q357 599 293 570T181 493T104 380T75 246Q75 187 96 137T154 49T244 -10T357 -32Q408 -32 453 -18T539 23L560 -7Q513 -37 461 -53T352 -70ZM351 175Q371 175 387 181T418 196T443 217T462 241L487 357Q479 374 460 391T406 408Q376 408 351 396T308 363T279 317T269 263Q269 224 291 200T351 175Z"  />
<glyph unicode="A" horiz-adv-x="684" d="M527 0L485 113H199L157 0H-4L253 667H431L688 0H527ZM342 525L238 238H446L342 525Z"  />
<glyph unicode="B" horiz-adv-x="663" d="M66 0V667H417Q465 667 501 653T561 616T597 561T609 497Q609 466 600 440T575 395T539 362T494 344Q521 340 544 326T585 290T612 240T622 181Q622 143 610 110T573 53T513 14T428 0H66ZM386 402Q422 402 443 421T464 472Q464 503 443 522T386 542H208V402H386ZM392 125Q432 125 454 145T477 201Q477 233 456 255T392 277H208V125H392Z"  />
<glyph unicode="C" horiz-adv-x="687" d="M390 -12Q315 -12 250 13T137 83T62 192T34 333Q34 410 61 473T137 582T250 653T390 678Q445 678 488 665T566 628T625 576T668 515L546 455Q525 496 483 524T390 552Q344 552 306 536T239 490T196 420T180 333Q180 286 195 246T239 176T305 131T390 114Q441 114 483 142T546 211L668 152Q650 121 625 92T566 39T489 2T390 -12Z"  />
<glyph unicode="D" horiz-adv-x="718" d="M66 0V667H329Q407 667 472 643T584 576T657 471T683 334Q683 258 657 197T585 92T473 24T330 0H66ZM329 125Q378 125 417 141T483 186T524 253T538 334Q538 378 525 416T485 482T420 526T330 542H208V125H329Z"  />
<glyph unicode="E" horiz-adv-x="583" d="M66 0V667H538V542H208V402H531V277H208V125H538V0H66Z"  />
<glyph unicode="F" horiz-adv-x="571" d="M66 0V667H538V542H208V402H531V277H208V0H66Z"  />
<glyph unicode="G" horiz-adv-x="720" d="M377 -12Q308 -12 246 12T137 82T62 190T34 333Q34 412 62 476T138 585T251 654T390 678Q442 678 484 666T560 634T620 586T665 529L548 465Q525 500 484 526T390 552Q344 552 306 536T239 490T196 420T180 333Q180 286 195 246T239 176T305 131T390 114Q426 114 454 124T504 153T540 195T563 245H355V370H719Q719 281 696 210T628 90T521 14T377 -12Z"  />
<glyph unicode="H" horiz-adv-x="731" d="M523 0V281H208V0H66V667H208V405H523V667H666V0H523Z"  />
<glyph unicode="I" horiz-adv-x="274" d="M66 0V667H208V0H66Z"  />
<glyph unicode="J" horiz-adv-x="486" d="M186 -12Q135 -12 89 3T6 54L68 162Q88 143 113 129T174 114Q222 114 250 143T278 221V667H421V219Q421 160 404 117T355 45T280 2T186 -12Z"  />
<glyph unicode="K" horiz-adv-x="636" d="M462 0L260 268L208 205V0H66V667H208V370L444 667H619L354 354L637 0H462Z"  />
<glyph unicode="L" horiz-adv-x="515" d="M60 0V667H203V125H485V0H60Z"  />
<glyph unicode="M" horiz-adv-x="855" d="M646 0V481L458 0H396L208 481V0H66V667H265L427 250L589 667H789V0H646Z"  />
<glyph unicode="N" horiz-adv-x="729" d="M526 0L208 435V0H66V667H212L521 248V667H663V0H526Z"  />
<glyph unicode="O" horiz-adv-x="765" d="M383 -12Q307 -12 243 13T133 85T60 194T34 333Q34 408 60 471T132 581T243 652T383 678Q458 678 522 653T632 581T705 472T731 333Q731 258 705 195T633 85T522 14T383 -12ZM383 114Q429 114 466 131T530 177T570 246T585 333Q585 380 571 420T530 489T467 535T383 552Q336 552 299 536T235 490T195 420T180 333Q180 286 194 246T235 177T298 131T383 114Z"  />
<glyph unicode="P" horiz-adv-x="625" d="M66 0V667H378Q432 667 474 650T544 604T587 535T602 452Q602 408 587 370T544 302T474 255T378 238H208V0H66ZM358 363Q400 363 428 386T457 452Q457 494 429 518T358 542H208V363H358Z"  />
<glyph unicode="Q" horiz-adv-x="765" d="M383 -12Q307 -12 243 13T133 85T60 194T34 333Q34 408 60 471T132 581T243 652T383 678Q458 678 522 653T632 581T705 472T731 333Q731 262 708 202T644 97L693 40L594 -41L540 21Q505 5 466 -3T383 -12ZM383 114Q419 114 452 125L379 211L478 292L551 206Q585 260 585 333Q585 380 571 420T530 489T467 535T383 552Q336 552 299 536T235 490T195 420T180 333Q180 286 194 246T235 177T298 131T383 114Z"  />
<glyph unicode="R" horiz-adv-x="643" d="M443 0L312 237H208V0H66V667H378Q430 667 471 651T542 606T587 538T603 452Q603 408 590 374T557 316T510 276T456 254L607 0H443ZM358 362Q400 362 428 386T457 453Q457 495 429 518T358 542H208V362H358Z"  />
<glyph unicode="S" horiz-adv-x="600" d="M304 -12Q207 -12 138 17T20 94L98 205Q133 168 187 141T310 114Q370 114 398 136T426 188Q426 217 398 232T327 258T234 280T142 314T71 373T42 474Q42 516 59 552T109 617T189 661T295 677Q454 677 555 584L476 478Q435 516 384 533T282 551Q237 551 213 533T188 485Q188 459 216 445T287 421T379 398T471 363T542 302T571 202Q571 156 555 117T505 50T421 5T304 -12Z"  />
<glyph unicode="T" horiz-adv-x="582" d="M220 0V542H25V667H557V542H363V0H220Z"  />
<glyph unicode="U" horiz-adv-x="734" d="M367 -12Q291 -12 235 8T141 65T85 153T66 267V667H210V271Q210 201 249 158T367 114Q445 114 484 157T523 271V667H668V267Q668 205 650 154T594 66T500 9T367 -12Z"  />
<glyph unicode="V" horiz-adv-x="684" d="M253 0L-4 667H157L342 155L527 667H688L431 0H253Z"  />
<glyph unicode="W" horiz-adv-x="918" d="M576 0L459 458L343 0H192L1 667H160L277 185L404 667H515L641 185L758 667H917L727 0H576Z"  />
<glyph unicode="X" horiz-adv-x="668" d="M501 0L334 244L166 0H-3L239 342L12 667H181L334 439L485 667H656L429 343L671 0H501Z"  />
<glyph unicode="Y" horiz-adv-x="645" d="M252 0V273L-4 667H158L323 400L488 667H649L394 273V0H252Z"  />
<glyph unicode="Z" horiz-adv-x="592" d="M42 0V115L357 542H42V667H543V553L228 125H550V0H42Z"  />
<glyph unicode="[" horiz-adv-x="280" d="M47 -190V678H263V593H139V-105H263V-190H47Z"  />
<glyph unicode="\" horiz-adv-x="329" d="M0 687H92L329 -20H237L0 687Z"  />
<glyph unicode="]" horiz-adv-x="280" d="M18 -190V-105H142V593H18V678H233V-190H18Z"  />
<glyph unicode="^" horiz-adv-x="441" d="M328 333L220 580L113 333H19L175 667H268L422 333H328Z"  />
<glyph unicode="_" horiz-adv-x="564" d="M-3 -125V-40H567V-125H-3Z"  />
<glyph unicode="`" horiz-adv-x="251" d="M162 556L0 700H117L251 556H162Z"  />
<glyph unicode="a" horiz-adv-x="586" d="M395 0V62Q366 26 329 7T246 -12Q201 -12 162 5T94 54T49 134T32 242Q32 301 48 348T92 427T160 477T246 495Q289 495 327 477T395 421V483H523V0H395ZM286 101Q318 101 348 116T395 156V326Q379 350 349 366T286 382Q231 382 197 344T163 242Q163 179 197 140T286 101Z"  />
<glyph unicode="b" horiz-adv-x="586" d="M190 155Q207 132 237 117T300 101Q355 101 388 140T422 242Q422 305 389 343T300 382Q268 382 238 366T190 326V155ZM63 0V667H190V421Q219 459 257 477T339 495Q385 495 424 478T492 428T537 348T553 242Q553 181 537 134T492 55T424 5T339 -12Q295 -12 257 7T190 62V0H63Z"  />
<glyph unicode="c" horiz-adv-x="499" d="M288 -12Q232 -12 186 6T105 59T51 139T32 242Q32 297 51 343T104 424T185 476T288 495Q362 495 408 468T479 408L396 330Q361 382 294 382Q236 382 200 344T163 242Q163 179 199 140T294 101Q327 101 353 115T396 154L479 76Q467 59 450 44T409 16T355 -4T288 -12Z"  />
<glyph unicode="d" horiz-adv-x="586" d="M395 0V62Q366 26 329 7T246 -12Q201 -12 162 5T94 54T49 134T32 242Q32 301 48 348T92 427T160 477T246 495Q289 495 327 477T395 421V667H523V0H395ZM286 101Q318 101 348 116T395 156V327Q379 351 349 366T286 382Q231 382 197 344T163 242Q163 179 197 140T286 101Z"  />
<glyph unicode="e" horiz-adv-x="553" d="M290 -12Q235 -12 188 6T106 57T52 137T32 242Q32 294 50 340T102 421T181 475T282 495Q336 495 381 476T457 421T506 338T524 230V200H165Q172 156 207 124T304 92Q319 92 336 95T371 104T404 119T432 139L489 55Q453 22 400 5T290 -12ZM402 288Q400 305 393 323T372 357T336 381T282 391Q252 391 231 382T195 358T174 325T164 288H402Z"  />
<glyph unicode="f" horiz-adv-x="327" d="M92 0V372H12V483H92V503Q92 545 104 577T138 632T189 665T254 677Q282 677 305 672T346 657L320 563Q306 573 279 573Q252 573 236 556T219 503V483H317V372H219V0H92Z"  />
<glyph unicode="g" horiz-adv-x="585" d="M261 -196Q199 -196 149 -180T53 -124L110 -33Q139 -65 177 -78T261 -92Q284 -92 307 -87T350 -67T382 -29T395 32V79Q366 43 328 24T245 4Q200 4 161 19T94 66T49 143T32 249Q32 308 48 354T92 431T160 479T245 495Q289 495 327 477T395 421V483H522V32Q522 -37 498 -81T436 -150T352 -186T261 -196ZM286 116Q317 116 347 132T395 171V328Q378 351 348 366T286 382Q231 382 197 347T163 249Q163 186 197 151T286 116Z"  />
<glyph unicode="h" horiz-adv-x="580" d="M390 0V294Q390 344 366 363T301 382Q263 382 235 365T191 326V0H63V667H191V421Q214 448 257 471T360 495Q440 495 478 455T517 343V0H390Z"  />
<glyph unicode="i" horiz-adv-x="253" d="M126 535Q95 535 73 557T51 611Q51 643 73 664T126 686Q158 686 180 665T202 611Q202 579 180 557T126 535ZM63 0V483H190V0H63Z"  />
<glyph unicode="j" horiz-adv-x="253" d="M126 535Q95 535 73 557T51 611Q51 643 73 664T126 686Q158 686 180 665T202 611Q202 579 180 557T126 535ZM18 -196Q-5 -196 -21 -194T-51 -188T-77 -177T-102 -161L-68 -67Q-54 -79 -40 -85T-3 -92Q26 -92 44 -73T63 -13V483H190V-13Q190 -96 148 -146T18 -196Z"  />
<glyph unicode="k" horiz-adv-x="536" d="M376 0L248 186L190 124V0H63V667H190V268L373 483H529L338 264L535 0H376Z"  />
<glyph unicode="l" horiz-adv-x="298" d="M199 -12Q63 -12 63 121V667H190V155Q190 132 201 117T234 101Q248 101 260 105T278 116L305 19Q291 6 265 -3T199 -12Z"  />
<glyph unicode="m" horiz-adv-x="853" d="M662 0V305Q662 339 646 360T590 382Q556 382 530 364T490 326V0H362V305Q362 339 346 360T290 382Q257 382 231 364T190 326V0H63V483H190V421Q198 431 213 444T249 468T295 487T348 495Q402 495 435 472T482 408Q492 424 509 439T547 467T594 487T648 495Q715 495 752 460T790 349V0H662Z"  />
<glyph unicode="n" horiz-adv-x="579" d="M389 0V292Q389 343 365 362T300 382Q262 382 235 365T190 326V0H63V483H190V421Q213 448 256 471T359 495Q440 495 478 454T517 341V0H389Z"  />
<glyph unicode="o" horiz-adv-x="575" d="M287 -12Q227 -12 180 8T100 63T50 144T32 242Q32 293 49 339T100 419T180 474T287 495Q347 495 394 475T475 420T525 339T543 242Q543 191 526 145T475 64T395 9T287 -12ZM287 101Q317 101 340 112T379 143T403 187T411 242Q411 270 403 295T379 340T340 370T287 382Q257 382 235 371T196 340T172 296T164 242Q164 213 172 188T196 143T234 113T287 101Z"  />
<glyph unicode="p" horiz-adv-x="583" d="M339 -12Q296 -12 258 6T190 62V-184H63V483H190V422Q218 457 256 476T339 495Q385 495 424 478T492 429T537 350T553 242Q553 182 537 135T493 55T425 5T339 -12ZM299 101Q354 101 388 140T422 242Q422 305 388 343T299 382Q268 382 238 367T190 327V157Q206 134 237 118T299 101Z"  />
<glyph unicode="q" horiz-adv-x="583" d="M284 101Q316 101 346 117T393 157V327Q377 351 347 366T284 382Q257 382 235 372T196 344T171 299T162 242Q162 179 196 140T284 101ZM244 -12Q198 -12 159 5T92 54T47 134T31 242Q31 302 47 349T91 429T159 478T244 495Q289 495 327 476T393 422V483H521V-184H393V62Q364 24 326 6T244 -12Z"  />
<glyph unicode="r" horiz-adv-x="360" d="M63 0V483H190V418Q216 450 257 472T344 495V371Q330 374 309 374Q293 374 276 370T242 359T212 341T190 319V0H63Z"  />
<glyph unicode="s" horiz-adv-x="477" d="M237 -12Q174 -12 117 8T21 63L76 155Q89 142 108 130T150 109T196 94T243 88Q285 88 304 102T324 139Q324 159 303 168T250 185T181 199T112 223T59 267T38 343Q38 373 51 400T89 449T151 482T236 495Q297 495 345 477T430 429L379 339Q357 362 319 378T236 395Q201 395 181 382T160 348Q160 330 181 322T234 307T303 292T372 266T425 220T447 142Q447 75 393 32T237 -12Z"  />
<glyph unicode="t" horiz-adv-x="338" d="M225 -12Q89 -12 89 121V372H9V483H89V615H216V483H314V372H216V155Q216 132 227 117T260 101Q274 101 286 105T304 116L331 19Q317 6 291 -3T225 -12Z"  />
<glyph unicode="u" horiz-adv-x="579" d="M389 0V61Q364 34 322 11T219 -12Q139 -12 101 28T63 140V483H190V190Q190 140 214 121T279 101Q316 101 344 118T389 156V483H516V0H389Z"  />
<glyph unicode="v" horiz-adv-x="513" d="M188 0L-6 483H130L256 147L383 483H519L325 0H188Z"  />
<glyph unicode="w" horiz-adv-x="770" d="M487 0L385 329L283 0H147L0 483H132L222 158L328 483H441L547 158L637 483H770L623 0H487Z"  />
<glyph unicode="x" horiz-adv-x="504" d="M362 0L252 163L141 0H0L172 248L10 483H152L252 335L351 483H493L332 248L504 0H362Z"  />
<glyph unicode="y" horiz-adv-x="579" d="M259 -196Q139 -196 57 -124L114 -33Q140 -65 180 -78T259 -92Q290 -92 314 -82T354 -56T380 -17T389 32V82Q364 55 322 32T219 9Q139 9 101 49T63 161V483H190V211Q190 161 214 142T279 122Q316 122 344 139T389 177V483H516V32Q516 -22 498 -64T445 -136T364 -181T259 -196Z"  />
<glyph unicode="z" horiz-adv-x="479" d="M42 0V95L260 372H42V483H433V392L211 111H437V0H42Z"  />
<glyph unicode="{" horiz-adv-x="288" d="M211 -190Q181 -190 153 -179T104 -148T69 -98T56 -31V141Q56 169 43 188T4 208V280Q30 280 43 299T56 347V518Q56 555 69 584T103 635T153 667T211 678H271V593H211Q185 593 167 573T148 519V334Q148 302 138 279T102 244Q127 233 137 210T148 154V-30Q148 -64 166 -84T211 -105H271V-190H211Z"  />
<glyph unicode="|" horiz-adv-x="216" d="M66 -20V687H151V-20H66Z"  />
<glyph unicode="}" horiz-adv-x="288" d="M17 -105H78Q104 -105 122 -85T141 -30V154Q141 186 151 209T187 244Q162 255 152 278T141 334V519Q141 553 123 573T78 593H17V678H78Q108 678 136 667T185 635T220 585T233 518V347Q233 319 246 300T285 280V208Q259 208 246 189T233 141V-31Q233 -68 220 -97T186 -147T136 -179T78 -190H17V-105Z"  />
<glyph unicode="~" horiz-adv-x="510" d="M484 657Q480 612 473 568T449 490T405 434T336 412Q303 412 283 425T250 457T230 500T215 542T199 575T175 588Q160 588 150 573T132 532T120 476T113 412L26 422Q30 467 38 510T62 588T106 644T175 666Q207 666 227 653T261 620T281 578T296 535T312 502T336 489Q351 489 361 504T379 545T391 602T398 667L484 657Z"  />
<glyph unicode="&#xA0;" horiz-adv-x="257" />
<glyph unicode="&#xA1;" horiz-adv-x="255" d="M71 265H183L204 -184H51L71 265ZM46 414Q46 430 52 444T70 470T95 487T127 494Q143 494 158 488T183 470T200 445T207 414Q207 381 184 357T127 333Q94 333 70 357T46 414Z"  />
<glyph unicode="&#xA2;" horiz-adv-x="499" d="M241 -8Q195 -1 157 20T91 74T48 149T32 242Q32 291 47 333T90 408T156 462T241 491V565H333V492Q387 484 423 460T479 408L396 330Q372 365 333 377V106Q371 118 396 154L479 76Q459 48 423 24T333 -8V-100H241V-8ZM163 242Q163 194 184 160T241 111V372Q205 357 184 324T163 242Z"  />
<glyph unicode="&#xA3;" horiz-adv-x="550" d="M23 350H91Q72 376 59 404T45 470Q45 518 66 556T122 621T200 662T288 677Q372 677 430 648T520 556L407 490Q395 522 368 541T305 561Q260 561 230 536T200 468Q200 430 216 404T249 350H393V269H281Q281 264 281 260T282 250Q282 215 263 186T217 139Q241 147 266 147Q288 147 304 142T334 131T363 119T396 114Q428 114 450 125T482 150L539 37Q518 16 482 2T391 -13Q358 -13 335 -6T291 9T252 24T210 31Q184 31 154 21T94 -7L46 90Q94 113 124 145T155 215Q155 229 152 242T143 269H23V350Z"  />
<glyph unicode="&#xA4;" horiz-adv-x="506" d="M253 222Q310 222 341 262T372 365Q372 395 364 421T341 467T304 498T253 509Q224 509 202 498T165 468T141 422T133 365Q133 334 141 308T164 263T202 233T253 222ZM19 168L88 239Q50 294 50 365Q50 436 88 489L19 560L64 603L131 534Q155 552 185 563T253 574Q289 574 320 563T375 534L442 603L487 560L418 489Q455 435 455 365Q455 330 445 298T417 240L487 168L442 125L374 194Q325 157 253 157Q181 157 132 194L64 125L19 168Z"  />
<glyph unicode="&#xA5;" horiz-adv-x="645" d="M252 0V115H24V193H252V273H24V352H200L-4 667H158L323 400L488 667H649L445 352H623V273H394V193H623V115H394V0H252Z"  />
<glyph unicode="&#xA6;" horiz-adv-x="216" d="M66 -20V296H151V-20H66ZM66 371V687H151V371H66Z"  />
<glyph unicode="&#xA7;" horiz-adv-x="484" d="M447 326Q447 285 426 252T363 198Q399 182 423 154T447 76Q447 38 431 9T387 -40T321 -70T237 -81Q162 -81 110 -58T23 -2L76 78Q102 53 144 31T237 8Q276 8 300 22T324 65Q324 89 303 101T250 121T181 139T112 164T59 207T38 282Q38 307 47 327T70 363T101 389T135 406Q38 443 38 533Q38 563 52 589T93 635T155 666T235 677Q310 677 356 656T429 609L379 534Q353 560 316 574T241 588Q203 588 182 574T160 535Q160 513 181 503T234 485T303 469T372 445T425 401T447 326ZM321 302Q321 334 296 350T238 374Q192 363 176 345T160 301Q160 283 169 271T192 251T225 237T263 228Q292 241 306 258T321 302Z"  />
<glyph unicode="&#xA8;" horiz-adv-x="295" d="M321 611Q321 582 302 563T253 543Q225 543 205 562T185 611Q185 640 205 659T253 679Q282 679 301 660T321 611ZM110 611Q110 582 91 563T42 543Q13 543 -6 562T-26 611Q-26 640 -7 659T42 679Q71 679 90 660T110 611Z"  />
<glyph unicode="&#xA9;" horiz-adv-x="778" d="M734 334Q734 263 707 200T633 90T524 16T389 -11Q318 -11 255 16T145 90T71 200T44 334Q44 406 71 468T145 578T255 652T389 679Q461 679 523 652T633 578T707 469T734 334ZM698 334Q698 398 674 454T607 552T509 618T389 643Q326 643 270 619T171 552T105 454T80 334Q80 271 104 215T171 116T269 50T389 25Q453 25 509 49T607 116T673 214T698 334ZM543 191Q516 159 479 141T394 123Q351 123 313 139T247 183T203 250T186 335Q186 381 202 419T247 486T313 529T394 545Q441 545 478 528T542 479L511 448Q491 474 460 489T394 505Q361 505 332 493T280 458T245 404T232 335Q232 298 245 267T280 212T331 176T394 163Q430 163 461 179T512 222L543 191Z"  />
<glyph unicode="&#xAA;" horiz-adv-x="385" d="M243 326V358Q229 343 204 331T141 318Q121 318 102 324T66 344T41 376T31 422Q31 448 40 467T66 498T101 517T141 523Q179 523 204 512T243 486V525Q243 550 224 564T174 579Q151 579 127 569T82 538L47 598Q77 624 114 636T190 648Q218 648 244 642T290 622T322 584T335 523V326H243ZM179 376Q198 376 215 383T243 404V440Q233 453 216 460T179 467Q156 467 139 456T122 422Q122 399 139 388T179 376Z"  />
<glyph unicode="&#xAB;" horiz-adv-x="527" d="M380 63L220 243L380 420H497L337 243L497 63H380ZM190 63L30 243L190 420H308L148 243L308 63H190Z"  />
<glyph unicode="&#xAC;" horiz-adv-x="515" d="M475 201H394V389H29V468H475V201Z"  />
<glyph unicode="&#xAD;" horiz-adv-x="300" d="M30 188V296H270V188H30Z"  />
<glyph unicode="&#xAE;" horiz-adv-x="494" d="M459 465Q459 421 443 383T398 315T330 270T247 253Q203 253 165 269T97 315T52 382T35 465Q35 509 51 548T97 615T164 660T247 677Q291 677 330 661T397 616T442 548T459 465ZM427 465Q427 503 413 536T375 593T317 631T247 645Q209 645 177 631T120 593T81 536T67 465Q67 428 81 395T119 338T176 299T247 285Q284 285 317 299T374 337T413 395T427 465ZM305 343L242 439H200V343H166V586H265Q296 586 320 566T344 512Q344 492 337 478T319 456T298 444T282 440L347 343H305ZM309 512Q309 532 295 544T265 556H200V470H265Q281 470 295 481T309 512Z"  />
<glyph unicode="&#xAF;" horiz-adv-x="363" d="M0 591V664H363V591H0Z"  />
<glyph unicode="&#xB0;" horiz-adv-x="311" d="M291 541Q291 513 281 489T252 446T208 418T155 407Q127 407 103 417T60 446T31 488T20 541Q20 569 30 594T59 637T102 666T155 677Q183 677 208 667T251 638T280 594T291 541ZM222 541Q222 569 202 588T155 608Q128 608 109 589T90 541Q90 514 109 495T155 476Q182 476 202 495T222 541Z"  />
<glyph unicode="&#xB1;" horiz-adv-x="504" d="M296 326V123H209V326H29V405H209V601H296V405H475V326H296ZM29 0V79H475V0H29Z"  />
<glyph unicode="&#xB2;" horiz-adv-x="398" d="M46 421V491Q111 536 153 567T219 622T252 661T262 695Q262 723 243 736T194 750Q159 750 130 735T85 701L35 761Q67 796 110 811T196 827Q230 827 259 819T311 795T345 756T357 703Q357 678 347 655T315 607T261 556T185 498H361V421H46Z"  />
<glyph unicode="&#xB3;" horiz-adv-x="398" d="M363 532Q363 480 318 447T197 414Q139 414 97 432T32 477L80 540Q103 515 134 503T194 491Q230 491 248 504T267 538Q267 567 242 577T179 587Q165 587 153 587T135 586V662Q141 661 153 661T178 661Q218 661 239 671T261 706Q261 729 240 739T188 750Q158 750 132 740T82 707L37 763Q63 791 102 809T198 827Q274 827 315 797T356 718Q356 681 329 657T267 627Q283 626 300 620T331 601T354 572T363 532Z"  />
<glyph unicode="&#xB4;" horiz-adv-x="251" d="M89 556H0L134 700H251L89 556Z"  />
<glyph unicode="&#xB5;" horiz-adv-x="579" d="M63 -184V483H190V185Q191 137 215 119T279 100Q316 100 344 117T389 156V483H516V0H389V61Q364 34 322 11T219 -12Q211 -12 204 -12T190 -10V-184H63Z"  />
<glyph unicode="&#xB6;" horiz-adv-x="449" d="M340 -100V605H262V-100H199V323Q163 323 132 336T78 373T41 428T27 495Q27 531 40 562T77 616T132 653T199 667H403V-100H340Z"  />
<glyph unicode="&#xB7;" horiz-adv-x="257" d="M209 244Q209 228 203 214T185 188T159 171T128 164Q111 164 97 170T72 188T55 213T48 244Q48 277 71 301T128 325Q161 325 185 301T209 244Z"  />
<glyph unicode="&#xB8;" horiz-adv-x="221" d="M110 -195Q74 -195 45 -186T0 -164L25 -113Q63 -142 107 -142Q127 -142 142 -134T158 -109Q158 -83 129 -83Q119 -83 111 -87T97 -97L51 -71L81 11H144L119 -51Q133 -41 154 -41Q182 -41 201 -60T221 -111Q221 -151 189 -173T110 -195Z"  />
<glyph unicode="&#xB9;" horiz-adv-x="286" d="M129 421V698L62 629L7 687L143 821H226V421H129Z"  />
<glyph unicode="&#xBA;" horiz-adv-x="405" d="M202 318Q162 318 131 331T77 367T42 420T30 483Q30 516 42 546T76 598T130 634T202 648Q242 648 274 635T329 599T363 546T375 483Q375 450 363 420T329 368T275 332T202 318ZM202 392Q239 392 260 416T281 483Q281 525 260 548T202 572Q166 572 146 549T125 483Q125 441 145 417T202 392Z"  />
<glyph unicode="&#xBB;" horiz-adv-x="527" d="M148 63H30L190 243L30 420H148L308 243L148 63ZM337 63H220L380 243L220 420H337L497 243L337 63Z"  />
<glyph unicode="&#xBC;" horiz-adv-x="833" d="M214 0H138L564 667H641L214 0ZM757 86V0H661V86H465V151L623 400H757V161H809V86H757ZM661 319L560 161H661V319ZM129 267V544L62 475L7 533L143 667H226V267H129Z"  />
<glyph unicode="&#xBD;" horiz-adv-x="867" d="M214 0H138L564 667H641L214 0ZM515 0V70Q580 115 622 146T688 201T721 240T731 274Q731 302 712 315T663 329Q628 329 599 314T554 280L504 340Q536 375 579 390T665 406Q699 406 728 398T780 374T814 335T826 282Q826 257 816 234T784 186T730 135T654 77H830V0H515ZM129 267V544L62 475L7 533L143 667H226V267H129Z"  />
<glyph unicode="&#xBE;" horiz-adv-x="921" d="M302 0H226L652 667H729L302 0ZM844 86V0H748V86H552V151L710 400H844V161H896V86H844ZM748 319L647 161H748V319ZM363 378Q363 326 318 293T197 260Q139 260 97 278T32 323L80 386Q103 361 134 349T194 337Q230 337 248 350T267 384Q267 413 242 423T179 433Q165 433 153 433T135 432V508Q141 507 153 507T178 507Q218 507 239 517T261 552Q261 575 240 585T188 596Q158 596 132 586T82 553L37 609Q63 637 102 655T198 673Q274 673 315 643T356 564Q356 527 329 503T267 473Q283 472 300 466T331 447T354 418T363 378Z"  />
<glyph unicode="&#xBF;" horiz-adv-x="398" d="M278 278Q311 242 311 189Q311 145 288 118T238 70T187 32T164 -12Q164 -35 182 -52T243 -69Q281 -69 312 -53T366 -7L447 -98Q407 -146 350 -170T228 -195Q180 -195 142 -184T76 -151T35 -101T20 -37Q20 -1 32 25T63 71T103 106T143 136T174 167T187 204Q187 216 182 227T168 246L278 278ZM230 494Q263 494 287 470T311 413Q311 380 287 356T230 332Q197 332 173 356T149 413Q149 446 173 470T230 494Z"  />
<glyph unicode="&#xC0;" horiz-adv-x="684" d="M336 728L174 872H291L425 728H336ZM527 0L485 113H199L157 0H-4L253 667H431L688 0H527ZM342 525L238 238H446L342 525Z"  />
<glyph unicode="&#xC1;" horiz-adv-x="684" d="M350 728H261L395 872H512L350 728ZM527 0L485 113H199L157 0H-4L253 667H431L688 0H527ZM342 525L238 238H446L342 525Z"  />
<glyph unicode="&#xC2;" horiz-adv-x="684" d="M416 728L343 817L272 728H194L286 872H400L494 728H416ZM527 0L485 113H199L157 0H-4L253 667H431L688 0H527ZM342 525L238 238H446L342 525Z"  />
<glyph unicode="&#xC3;" horiz-adv-x="684" d="M399 726Q373 726 357 736T329 760T307 783T282 794Q267 794 257 779T246 732H179Q179 796 206 831T287 866Q312 866 328 856T356 833T378 810T403 799Q418 799 428 813T439 860H506Q506 796 479 761T399 726ZM527 0L485 113H199L157 0H-4L253 667H431L688 0H527ZM342 525L238 238H446L342 525Z"  />
<glyph unicode="&#xC4;" horiz-adv-x="684" d="M516 784Q516 755 497 736T448 716Q420 716 400 735T380 784Q380 813 400 832T448 852Q477 852 496 833T516 784ZM305 784Q305 755 286 736T237 716Q208 716 189 735T169 784Q169 813 188 832T237 852Q266 852 285 833T305 784ZM527 0L485 113H199L157 0H-4L253 667H431L688 0H527ZM342 525L238 238H446L342 525Z"  />
<glyph unicode="&#xC5;" horiz-adv-x="684" d="M343 693Q322 693 303 701T269 724T247 757T238 798Q238 820 246 839T269 872T302 894T343 903Q365 903 384 895T417 872T439 839T447 798Q447 777 439 758T417 724T384 702T343 693ZM343 751Q363 751 376 764T389 798Q389 818 376 831T343 845Q324 845 310 832T296 798Q296 778 310 765T343 751ZM527 0L485 113H199L157 0H-4L253 667H431L688 0H527ZM342 525L238 238H446L342 525Z"  />
<glyph unicode="&#xC6;" horiz-adv-x="968" d="M454 0V113H220L154 0H-9L397 667H926V542H597V402H919V277H597V125H926V0H454ZM454 525L287 238H454V525Z"  />
<glyph unicode="&#xC7;" horiz-adv-x="687" d="M384 -191Q348 -191 319 -182T274 -160L299 -109Q337 -138 381 -138Q401 -138 416 -130T432 -105Q432 -79 403 -79Q385 -79 371 -93L325 -67L346 -9Q279 -2 222 25T123 97T58 202T34 333Q34 410 61 473T137 582T250 653T390 678Q445 678 488 665T566 628T625 576T668 515L546 455Q525 496 483 524T390 552Q344 552 306 536T239 490T196 420T180 333Q180 286 195 246T239 176T305 131T390 114Q441 114 483 142T546 211L668 152Q651 122 627 94T571 43T499 6T407 -11L393 -47Q407 -37 428 -37Q456 -37 475 -56T495 -107Q495 -147 463 -169T384 -191Z"  />
<glyph unicode="&#xC8;" horiz-adv-x="583" d="M296 728L134 872H251L385 728H296ZM66 0V667H538V542H208V402H531V277H208V125H538V0H66Z"  />
<glyph unicode="&#xC9;" horiz-adv-x="583" d="M309 728H220L354 872H471L309 728ZM66 0V667H538V542H208V402H531V277H208V125H538V0H66Z"  />
<glyph unicode="&#xCA;" horiz-adv-x="583" d="M374 728L301 817L230 728H152L244 872H358L452 728H374ZM66 0V667H538V542H208V402H531V277H208V125H538V0H66Z"  />
<glyph unicode="&#xCB;" horiz-adv-x="583" d="M477 784Q477 755 458 736T409 716Q381 716 361 735T341 784Q341 813 361 832T409 852Q438 852 457 833T477 784ZM266 784Q266 755 247 736T198 716Q169 716 150 735T130 784Q130 813 149 832T198 852Q227 852 246 833T266 784ZM66 0V667H538V542H208V402H531V277H208V125H538V0H66Z"  />
<glyph unicode="&#xCC;" horiz-adv-x="274" d="M130 728L-32 872H85L219 728H130ZM66 0V667H208V0H66Z"  />
<glyph unicode="&#xCD;" horiz-adv-x="274" d="M147 728H58L192 872H309L147 728ZM66 0V667H208V0H66Z"  />
<glyph unicode="&#xCE;" horiz-adv-x="274" d="M209 728L136 817L65 728H-13L79 872H193L287 728H209ZM66 0V667H208V0H66Z"  />
<glyph unicode="&#xCF;" horiz-adv-x="274" d="M311 784Q311 755 292 736T243 716Q215 716 195 735T175 784Q175 813 195 832T243 852Q272 852 291 833T311 784ZM100 784Q100 755 81 736T32 716Q3 716 -16 735T-36 784Q-36 813 -17 832T32 852Q61 852 80 833T100 784ZM66 0V667H208V0H66Z"  />
<glyph unicode="&#xD0;" horiz-adv-x="742" d="M91 0V277H9V383H91V667H354Q432 667 497 643T609 576T682 471T708 334Q708 258 682 197T610 92T498 24T355 0H91ZM233 277V125H354Q403 125 442 141T508 186T549 253T563 334Q563 378 550 416T510 482T445 526T355 542H233V383H383V277H233Z"  />
<glyph unicode="&#xD1;" horiz-adv-x="729" d="M420 726Q394 726 378 736T350 760T328 783T303 794Q288 794 278 779T267 732H200Q200 796 227 831T308 866Q333 866 349 856T377 833T399 810T424 799Q439 799 449 813T460 860H527Q527 796 500 761T420 726ZM526 0L208 435V0H66V667H212L521 248V667H663V0H526Z"  />
<glyph unicode="&#xD2;" horiz-adv-x="765" d="M379 728L217 872H334L468 728H379ZM383 -12Q307 -12 243 13T133 85T60 194T34 333Q34 408 60 471T132 581T243 652T383 678Q458 678 522 653T632 581T705 472T731 333Q731 258 705 195T633 85T522 14T383 -12ZM383 114Q429 114 466 131T530 177T570 246T585 333Q585 380 571 420T530 489T467 535T383 552Q336 552 299 536T235 490T195 420T180 333Q180 286 194 246T235 177T298 131T383 114Z"  />
<glyph unicode="&#xD3;" horiz-adv-x="765" d="M391 728H302L436 872H553L391 728ZM383 -12Q307 -12 243 13T133 85T60 194T34 333Q34 408 60 471T132 581T243 652T383 678Q458 678 522 653T632 581T705 472T731 333Q731 258 705 195T633 85T522 14T383 -12ZM383 114Q429 114 466 131T530 177T570 246T585 333Q585 380 571 420T530 489T467 535T383 552Q336 552 299 536T235 490T195 420T180 333Q180 286 194 246T235 177T298 131T383 114Z"  />
<glyph unicode="&#xD4;" horiz-adv-x="765" d="M457 728L384 817L313 728H235L327 872H441L535 728H457ZM383 -12Q307 -12 243 13T133 85T60 194T34 333Q34 408 60 471T132 581T243 652T383 678Q458 678 522 653T632 581T705 472T731 333Q731 258 705 195T633 85T522 14T383 -12ZM383 114Q429 114 466 131T530 177T570 246T585 333Q585 380 571 420T530 489T467 535T383 552Q336 552 299 536T235 490T195 420T180 333Q180 286 194 246T235 177T298 131T383 114Z"  />
<glyph unicode="&#xD5;" horiz-adv-x="765" d="M440 726Q414 726 398 736T370 760T348 783T323 794Q308 794 298 779T287 732H220Q220 796 247 831T328 866Q353 866 369 856T397 833T419 810T444 799Q459 799 469 813T480 860H547Q547 796 520 761T440 726ZM383 -12Q307 -12 243 13T133 85T60 194T34 333Q34 408 60 471T132 581T243 652T383 678Q458 678 522 653T632 581T705 472T731 333Q731 258 705 195T633 85T522 14T383 -12ZM383 114Q429 114 466 131T530 177T570 246T585 333Q585 380 571 420T530 489T467 535T383 552Q336 552 299 536T235 490T195 420T180 333Q180 286 194 246T235 177T298 131T383 114Z"  />
<glyph unicode="&#xD6;" horiz-adv-x="765" d="M557 784Q557 755 538 736T489 716Q461 716 441 735T421 784Q421 813 441 832T489 852Q518 852 537 833T557 784ZM346 784Q346 755 327 736T278 716Q249 716 230 735T210 784Q210 813 229 832T278 852Q307 852 326 833T346 784ZM383 -12Q307 -12 243 13T133 85T60 194T34 333Q34 408 60 471T132 581T243 652T383 678Q458 678 522 653T632 581T705 472T731 333Q731 258 705 195T633 85T522 14T383 -12ZM383 114Q429 114 466 131T530 177T570 246T585 333Q585 380 571 420T530 489T467 535T383 552Q336 552 299 536T235 490T195 420T180 333Q180 286 194 246T235 177T298 131T383 114Z"  />
<glyph unicode="&#xD7;" horiz-adv-x="504" d="M252 279L112 137L55 193L197 334L55 475L112 531L252 389L394 531L449 475L308 334L449 193L394 137L252 279Z"  />
<glyph unicode="&#xD8;" horiz-adv-x="765" d="M383 -12Q278 -12 198 35L172 0H69L133 84Q86 130 60 193T34 333Q34 408 60 471T132 581T243 652T383 678Q431 678 474 668T555 637L578 667H680L622 591Q673 544 702 479T731 333Q731 258 705 195T633 85T522 14T383 -12ZM383 114Q429 114 466 131T530 177T570 246T585 333Q585 377 573 414T538 480L279 141Q301 128 327 121T383 114ZM180 333Q180 294 189 260T219 197L474 531Q454 541 432 546T383 552Q336 552 299 536T235 490T195 420T180 333Z"  />
<glyph unicode="&#xD9;" horiz-adv-x="734" d="M363 728L201 872H318L452 728H363ZM367 -12Q291 -12 235 8T141 65T85 153T66 267V667H210V271Q210 201 249 158T367 114Q445 114 484 157T523 271V667H668V267Q668 205 650 154T594 66T500 9T367 -12Z"  />
<glyph unicode="&#xDA;" horiz-adv-x="734" d="M376 728H287L421 872H538L376 728ZM367 -12Q291 -12 235 8T141 65T85 153T66 267V667H210V271Q210 201 249 158T367 114Q445 114 484 157T523 271V667H668V267Q668 205 650 154T594 66T500 9T367 -12Z"  />
<glyph unicode="&#xDB;" horiz-adv-x="734" d="M445 728L372 817L301 728H223L315 872H429L523 728H445ZM367 -12Q291 -12 235 8T141 65T85 153T66 267V667H210V271Q210 201 249 158T367 114Q445 114 484 157T523 271V667H668V267Q668 205 650 154T594 66T500 9T367 -12Z"  />
<glyph unicode="&#xDC;" horiz-adv-x="734" d="M543 784Q543 755 524 736T475 716Q447 716 427 735T407 784Q407 813 427 832T475 852Q504 852 523 833T543 784ZM332 784Q332 755 313 736T264 716Q235 716 216 735T196 784Q196 813 215 832T264 852Q293 852 312 833T332 784ZM367 -12Q291 -12 235 8T141 65T85 153T66 267V667H210V271Q210 201 249 158T367 114Q445 114 484 157T523 271V667H668V267Q668 205 650 154T594 66T500 9T367 -12Z"  />
<glyph unicode="&#xDD;" horiz-adv-x="645" d="M333 728H244L378 872H495L333 728ZM252 0V273L-4 667H158L323 400L488 667H649L394 273V0H252Z"  />
<glyph unicode="&#xDE;" horiz-adv-x="625" d="M66 0V667H208V559H378Q432 559 474 542T544 495T587 426T602 343Q602 299 587 261T544 193T474 147T378 130H208V0H66ZM358 255Q400 255 428 278T457 344Q457 386 429 410T358 435H208V255H358Z"  />
<glyph unicode="&#xDF;" horiz-adv-x="643" d="M627 145Q627 111 613 82T573 32T510 0T426 -12Q390 -12 361 -6T309 11T267 36T230 67L283 155Q293 142 308 130T343 109T383 95T426 90Q466 90 485 105T505 140Q505 159 486 169T437 187T375 203T312 227T264 271T244 344Q244 383 263 408T305 451T348 483T367 514Q367 540 343 552T290 564Q248 564 220 541T191 475V0H63V475Q63 516 78 553T123 617T195 661T292 677Q332 677 369 667T434 639T480 593T498 533Q498 491 478 465T432 421T387 387T366 349Q366 331 385 323T434 309T496 294T559 269T607 223T627 145Z"  />
<glyph unicode="&#xE0;" horiz-adv-x="586" d="M294 556L132 700H249L383 556H294ZM395 0V62Q366 26 329 7T246 -12Q201 -12 162 5T94 54T49 134T32 242Q32 301 48 348T92 427T160 477T246 495Q289 495 327 477T395 421V483H523V0H395ZM286 101Q318 101 348 116T395 156V326Q379 350 349 366T286 382Q231 382 197 344T163 242Q163 179 197 140T286 101Z"  />
<glyph unicode="&#xE1;" horiz-adv-x="586" d="M308 556H219L353 700H470L308 556ZM395 0V62Q366 26 329 7T246 -12Q201 -12 162 5T94 54T49 134T32 242Q32 301 48 348T92 427T160 477T246 495Q289 495 327 477T395 421V483H523V0H395ZM286 101Q318 101 348 116T395 156V326Q379 350 349 366T286 382Q231 382 197 344T163 242Q163 179 197 140T286 101Z"  />
<glyph unicode="&#xE2;" horiz-adv-x="586" d="M373 556L300 645L229 556H151L243 700H357L451 556H373ZM395 0V62Q366 26 329 7T246 -12Q201 -12 162 5T94 54T49 134T32 242Q32 301 48 348T92 427T160 477T246 495Q289 495 327 477T395 421V483H523V0H395ZM286 101Q318 101 348 116T395 156V326Q379 350 349 366T286 382Q231 382 197 344T163 242Q163 179 197 140T286 101Z"  />
<glyph unicode="&#xE3;" horiz-adv-x="586" d="M358 554Q332 554 316 564T288 588T266 611T241 622Q226 622 216 607T205 560H138Q138 624 165 659T246 694Q271 694 287 684T315 661T337 638T362 627Q377 627 387 641T398 688H465Q465 624 438 589T358 554ZM395 0V62Q366 26 329 7T246 -12Q201 -12 162 5T94 54T49 134T32 242Q32 301 48 348T92 427T160 477T246 495Q289 495 327 477T395 421V483H523V0H395ZM286 101Q318 101 348 116T395 156V326Q379 350 349 366T286 382Q231 382 197 344T163 242Q163 179 197 140T286 101Z"  />
<glyph unicode="&#xE4;" horiz-adv-x="586" d="M475 611Q475 582 456 563T407 543Q379 543 359 562T339 611Q339 640 359 659T407 679Q436 679 455 660T475 611ZM264 611Q264 582 245 563T196 543Q167 543 148 562T128 611Q128 640 147 659T196 679Q225 679 244 660T264 611ZM395 0V62Q366 26 329 7T246 -12Q201 -12 162 5T94 54T49 134T32 242Q32 301 48 348T92 427T160 477T246 495Q289 495 327 477T395 421V483H523V0H395ZM286 101Q318 101 348 116T395 156V326Q379 350 349 366T286 382Q231 382 197 344T163 242Q163 179 197 140T286 101Z"  />
<glyph unicode="&#xE5;" horiz-adv-x="586" d="M300 548Q279 548 260 556T226 579T204 612T195 653Q195 675 203 694T226 727T259 749T300 758Q322 758 341 750T374 727T396 694T404 653Q404 632 396 613T374 579T341 557T300 548ZM300 606Q320 606 333 619T346 653Q346 673 333 686T300 700Q281 700 267 687T253 653Q253 633 267 620T300 606ZM395 0V62Q366 26 329 7T246 -12Q201 -12 162 5T94 54T49 134T32 242Q32 301 48 348T92 427T160 477T246 495Q289 495 327 477T395 421V483H523V0H395ZM286 101Q318 101 348 116T395 156V326Q379 350 349 366T286 382Q231 382 197 344T163 242Q163 179 197 140T286 101Z"  />
<glyph unicode="&#xE6;" horiz-adv-x="912" d="M395 0V62Q366 26 329 7T246 -12Q201 -12 162 5T94 54T49 134T32 242Q32 301 48 348T92 427T160 477T246 495Q289 495 327 477T395 421V483H523V416Q548 452 586 473T679 495Q725 495 762 476T827 421T868 338T883 230V200H523Q530 155 565 125T662 94Q677 94 694 97T729 107T762 122T790 142L846 55Q820 28 777 8T686 -12Q632 -12 591 8T523 67V0H395ZM286 101Q318 101 348 116T395 156V326Q379 350 349 366T286 382Q231 382 197 344T163 242Q163 179 197 140T286 101ZM761 288Q760 305 753 323T732 357T695 381T641 391Q611 391 590 382T554 358T533 325T523 288H761Z"  />
<glyph unicode="&#xE7;" horiz-adv-x="499" d="M291 -193Q255 -193 226 -184T181 -162L206 -111Q244 -140 288 -140Q308 -140 323 -132T339 -107Q339 -81 310 -81Q292 -81 278 -95L232 -69L253 -10Q204 -4 164 16T94 70T48 147T32 242Q32 297 51 343T104 424T185 476T288 495Q362 495 408 468T479 408L396 330Q361 382 294 382Q236 382 200 344T163 242Q163 179 199 140T294 101Q327 101 353 115T396 154L479 76Q457 46 418 21T315 -11L300 -49Q314 -39 335 -39Q363 -39 382 -58T402 -109Q402 -149 370 -171T291 -193Z"  />
<glyph unicode="&#xE8;" horiz-adv-x="553" d="M290 -12Q235 -12 188 6T106 57T52 137T32 242Q32 294 50 340T102 421T181 475T282 495Q336 495 381 476T457 421T506 338T524 230V200H165Q172 156 207 124T304 92Q319 92 336 95T371 104T404 119T432 139L489 55Q453 22 400 5T290 -12ZM402 288Q400 305 393 323T372 357T336 381T282 391Q252 391 231 382T195 358T174 325T164 288H402ZM276 556L114 700H231L365 556H276Z"  />
<glyph unicode="&#xE9;" horiz-adv-x="553" d="M290 -12Q235 -12 188 6T106 57T52 137T32 242Q32 294 50 340T102 421T181 475T282 495Q336 495 381 476T457 421T506 338T524 230V200H165Q172 156 207 124T304 92Q319 92 336 95T371 104T404 119T432 139L489 55Q453 22 400 5T290 -12ZM402 288Q400 305 393 323T372 357T336 381T282 391Q252 391 231 382T195 358T174 325T164 288H402ZM292 556H203L337 700H454L292 556Z"  />
<glyph unicode="&#xEA;" horiz-adv-x="553" d="M290 -12Q235 -12 188 6T106 57T52 137T32 242Q32 294 50 340T102 421T181 475T282 495Q336 495 381 476T457 421T506 338T524 230V200H165Q172 156 207 124T304 92Q319 92 336 95T371 104T404 119T432 139L489 55Q453 22 400 5T290 -12ZM402 288Q400 305 393 323T372 357T336 381T282 391Q252 391 231 382T195 358T174 325T164 288H402ZM356 556L283 645L212 556H134L226 700H340L434 556H356Z"  />
<glyph unicode="&#xEB;" horiz-adv-x="553" d="M290 -12Q235 -12 188 6T106 57T52 137T32 242Q32 294 50 340T102 421T181 475T282 495Q336 495 381 476T457 421T506 338T524 230V200H165Q172 156 207 124T304 92Q319 92 336 95T371 104T404 119T432 139L489 55Q453 22 400 5T290 -12ZM402 288Q400 305 393 323T372 357T336 381T282 391Q252 391 231 382T195 358T174 325T164 288H402ZM457 611Q457 582 438 563T389 543Q361 543 341 562T321 611Q321 640 341 659T389 679Q418 679 437 660T457 611ZM246 611Q246 582 227 563T178 543Q149 543 130 562T110 611Q110 640 129 659T178 679Q207 679 226 660T246 611Z"  />
<glyph unicode="&#xEC;" horiz-adv-x="253" d="M119 556L-43 700H74L208 556H119ZM63 0V483H190V0H63Z"  />
<glyph unicode="&#xED;" horiz-adv-x="253" d="M134 556H45L179 700H296L134 556ZM63 0V483H190V0H63Z"  />
<glyph unicode="&#xEE;" horiz-adv-x="253" d="M199 556L126 645L55 556H-23L69 700H183L277 556H199ZM63 0V483H190V0H63Z"  />
<glyph unicode="&#xEF;" horiz-adv-x="253" d="M300 611Q300 582 281 563T232 543Q204 543 184 562T164 611Q164 640 184 659T232 679Q261 679 280 660T300 611ZM89 611Q89 582 70 563T21 543Q-8 543 -27 562T-47 611Q-47 640 -28 659T21 679Q50 679 69 660T89 611ZM63 0V483H190V0H63Z"  />
<glyph unicode="&#xF0;" horiz-adv-x="575" d="M78 529L186 576Q170 586 155 595T124 614L193 716Q226 696 257 675T316 633L419 678L445 621L371 588Q452 516 497 434T543 252Q543 193 526 145T475 62T395 8T287 -12Q229 -12 182 5T102 54T50 129T32 224Q32 276 48 319T93 394T161 442T246 460Q347 460 406 368Q386 413 344 454T249 534L103 469L78 529ZM287 101Q317 101 340 111T379 137T403 176T411 224Q411 249 403 271T379 311T340 338T287 348Q257 348 235 338T196 311T172 272T164 224Q164 199 172 177T196 138T234 111T287 101Z"  />
<glyph unicode="&#xF1;" horiz-adv-x="579" d="M396 0V292Q396 343 372 362T307 382Q269 382 242 365T197 326V0H70V483H197V421Q220 448 263 471T366 495Q447 495 485 454T524 341V0H396ZM347 554Q321 554 305 564T277 588T255 611T230 622Q215 622 205 607T194 560H127Q127 624 154 659T235 694Q260 694 276 684T304 661T326 638T351 627Q366 627 376 641T387 688H454Q454 624 427 589T347 554Z"  />
<glyph unicode="&#xF2;" horiz-adv-x="575" d="M287 -12Q227 -12 180 8T100 63T50 144T32 242Q32 293 49 339T100 419T180 474T287 495Q347 495 394 475T475 420T525 339T543 242Q543 191 526 145T475 64T395 9T287 -12ZM287 101Q317 101 340 112T379 143T403 187T411 242Q411 270 403 295T379 340T340 370T287 382Q257 382 235 371T196 340T172 296T164 242Q164 213 172 188T196 143T234 113T287 101ZM281 556L119 700H236L370 556H281Z"  />
<glyph unicode="&#xF3;" horiz-adv-x="575" d="M287 -12Q227 -12 180 8T100 63T50 144T32 242Q32 293 49 339T100 419T180 474T287 495Q347 495 394 475T475 420T525 339T543 242Q543 191 526 145T475 64T395 9T287 -12ZM287 101Q317 101 340 112T379 143T403 187T411 242Q411 270 403 295T379 340T340 370T287 382Q257 382 235 371T196 340T172 296T164 242Q164 213 172 188T196 143T234 113T287 101ZM295 556H206L340 700H457L295 556Z"  />
<glyph unicode="&#xF4;" horiz-adv-x="575" d="M287 -12Q227 -12 180 8T100 63T50 144T32 242Q32 293 49 339T100 419T180 474T287 495Q347 495 394 475T475 420T525 339T543 242Q543 191 526 145T475 64T395 9T287 -12ZM287 101Q317 101 340 112T379 143T403 187T411 242Q411 270 403 295T379 340T340 370T287 382Q257 382 235 371T196 340T172 296T164 242Q164 213 172 188T196 143T234 113T287 101ZM360 556L287 645L216 556H138L230 700H344L438 556H360Z"  />
<glyph unicode="&#xF5;" horiz-adv-x="575" d="M287 -12Q227 -12 180 8T100 63T50 144T32 242Q32 293 49 339T100 419T180 474T287 495Q347 495 394 475T475 420T525 339T543 242Q543 191 526 145T475 64T395 9T287 -12ZM287 101Q317 101 340 112T379 143T403 187T411 242Q411 270 403 295T379 340T340 370T287 382Q257 382 235 371T196 340T172 296T164 242Q164 213 172 188T196 143T234 113T287 101ZM344 554Q318 554 302 564T274 588T252 611T227 622Q212 622 202 607T191 560H124Q124 624 151 659T232 694Q257 694 273 684T301 661T323 638T348 627Q363 627 373 641T384 688H451Q451 624 424 589T344 554Z"  />
<glyph unicode="&#xF6;" horiz-adv-x="575" d="M287 -12Q227 -12 180 8T100 63T50 144T32 242Q32 293 49 339T100 419T180 474T287 495Q347 495 394 475T475 420T525 339T543 242Q543 191 526 145T475 64T395 9T287 -12ZM287 101Q317 101 340 112T379 143T403 187T411 242Q411 270 403 295T379 340T340 370T287 382Q257 382 235 371T196 340T172 296T164 242Q164 213 172 188T196 143T234 113T287 101ZM461 611Q461 582 442 563T393 543Q365 543 345 562T325 611Q325 640 345 659T393 679Q422 679 441 660T461 611ZM250 611Q250 582 231 563T182 543Q153 543 134 562T114 611Q114 640 133 659T182 679Q211 679 230 660T250 611Z"  />
<glyph unicode="&#xF7;" horiz-adv-x="511" d="M316 516Q316 490 299 472T255 454Q230 454 212 472T194 516Q194 541 212 558T255 576Q281 576 298 559T316 516ZM29 298V377H482V298H29ZM316 157Q316 131 299 114T255 96Q230 96 212 113T194 157Q194 183 212 200T255 218Q281 218 298 201T316 157Z"  />
<glyph unicode="&#xF8;" horiz-adv-x="575" d="M40 0L97 67Q65 102 49 146T32 242Q32 293 49 339T100 419T180 474T287 495Q329 495 364 485T428 457L450 483H530L475 419Q508 384 525 339T543 242Q543 191 526 145T475 64T395 9T287 -12Q244 -12 208 -2T143 28L119 0H40ZM287 101Q317 101 340 112T379 143T403 187T411 242Q411 285 392 321L221 120Q249 101 287 101ZM164 242Q164 200 181 166L350 365Q322 382 287 382Q257 382 235 371T196 340T172 296T164 242Z"  />
<glyph unicode="&#xF9;" horiz-adv-x="579" d="M389 0V61Q364 34 322 11T219 -12Q139 -12 101 28T63 140V483H190V190Q190 140 214 121T279 101Q316 101 344 118T389 156V483H516V0H389ZM284 556L122 700H239L373 556H284Z"  />
<glyph unicode="&#xFA;" horiz-adv-x="579" d="M389 0V61Q364 34 322 11T219 -12Q139 -12 101 28T63 140V483H190V190Q190 140 214 121T279 101Q316 101 344 118T389 156V483H516V0H389ZM298 556H209L343 700H460L298 556Z"  />
<glyph unicode="&#xFB;" horiz-adv-x="579" d="M389 0V61Q364 34 322 11T219 -12Q139 -12 101 28T63 140V483H190V190Q190 140 214 121T279 101Q316 101 344 118T389 156V483H516V0H389ZM363 556L290 645L219 556H141L233 700H347L441 556H363Z"  />
<glyph unicode="&#xFC;" horiz-adv-x="579" d="M389 0V61Q364 34 322 11T219 -12Q139 -12 101 28T63 140V483H190V190Q190 140 214 121T279 101Q316 101 344 118T389 156V483H516V0H389ZM466 611Q466 582 447 563T398 543Q370 543 350 562T330 611Q330 640 350 659T398 679Q427 679 446 660T466 611ZM255 611Q255 582 236 563T187 543Q158 543 139 562T119 611Q119 640 138 659T187 679Q216 679 235 660T255 611Z"  />
<glyph unicode="&#xFD;" horiz-adv-x="579" d="M296 556H207L341 700H458L296 556ZM259 -196Q139 -196 57 -124L114 -33Q140 -65 180 -78T259 -92Q290 -92 314 -82T354 -56T380 -17T389 32V82Q364 55 322 32T219 9Q139 9 101 49T63 161V483H190V211Q190 161 214 142T279 122Q316 122 344 139T389 177V483H516V32Q516 -22 498 -64T445 -136T364 -181T259 -196Z"  />
<glyph unicode="&#xFE;" horiz-adv-x="583" d="M339 -12Q296 -12 258 6T190 62V-184H63V667H190V422Q218 457 256 476T339 495Q385 495 424 478T492 429T537 350T553 242Q553 182 537 135T493 55T425 5T339 -12ZM299 101Q354 101 388 140T422 242Q422 305 388 343T299 382Q268 382 238 367T190 327V157Q206 134 237 118T299 101Z"  />
<glyph unicode="&#xFF;" horiz-adv-x="579" d="M460 611Q460 582 441 563T392 543Q364 543 344 562T324 611Q324 640 344 659T392 679Q421 679 440 660T460 611ZM249 611Q249 582 230 563T181 543Q152 543 133 562T113 611Q113 640 132 659T181 679Q210 679 229 660T249 611ZM259 -196Q139 -196 57 -124L114 -33Q140 -65 180 -78T259 -92Q290 -92 314 -82T354 -56T380 -17T389 32V82Q364 55 322 32T219 9Q139 9 101 49T63 161V483H190V211Q190 161 214 142T279 122Q316 122 344 139T389 177V483H516V32Q516 -22 498 -64T445 -136T364 -181T259 -196Z"  />
<glyph unicode="&#x152;" horiz-adv-x="1084" d="M570 0V78Q535 33 480 11T368 -12Q295 -12 234 13T129 84T59 193T34 333Q34 409 59 472T128 580T234 651T368 677Q424 677 479 656T570 589V667H1041V542H712V402H1034V277H712V125H1041V0H570ZM570 437Q545 494 497 522T388 551Q340 551 302 535T236 489T195 420T180 333Q180 286 194 246T236 177T301 131T388 114Q449 114 497 144T570 230V437Z"  />
<glyph unicode="&#x153;" horiz-adv-x="931" d="M544 200Q551 155 586 124T682 92Q714 92 750 104T811 139L868 55Q831 22 779 5T669 -12Q629 -12 598 -2T544 23T504 58T475 95Q463 78 447 59T407 24T355 -2T287 -12Q227 -12 180 8T100 63T50 144T32 242Q32 293 49 339T100 419T180 474T287 495Q325 495 354 485T407 459T447 424T476 388Q487 405 503 424T542 458T594 484T661 495Q715 495 759 476T836 421T885 338T903 230V200H544ZM780 288Q779 305 772 323T751 357T715 381T661 391Q631 391 610 382T574 358T552 325T542 288H780ZM411 242Q411 304 378 343T287 382Q231 382 198 343T164 242Q164 179 197 140T287 100Q344 100 377 139T411 242Z"  />
<glyph unicode="&#x160;" horiz-adv-x="600" d="M238 728L143 872H221L295 783L365 872H443L352 728H238ZM304 -12Q207 -12 138 17T20 94L98 205Q133 168 187 141T310 114Q370 114 398 136T426 188Q426 217 398 232T327 258T234 280T142 314T71 373T42 474Q42 516 59 552T109 617T189 661T295 677Q454 677 555 584L476 478Q435 516 384 533T282 551Q237 551 213 533T188 485Q188 459 216 445T287 421T379 398T471 363T542 302T571 202Q571 156 555 117T505 50T421 5T304 -12Z"  />
<glyph unicode="&#x161;" horiz-adv-x="477" d="M237 -12Q174 -12 117 8T21 63L76 155Q89 142 108 130T150 109T196 94T243 88Q285 88 304 102T324 139Q324 159 303 168T250 185T181 199T112 223T59 267T38 343Q38 373 51 400T89 449T151 482T236 495Q297 495 345 477T430 429L379 339Q357 362 319 378T236 395Q201 395 181 382T160 348Q160 330 181 322T234 307T303 292T372 266T425 220T447 142Q447 75 393 32T237 -12ZM182 556L87 700H165L239 611L309 700H387L296 556H182Z"  />
<glyph unicode="&#x178;" horiz-adv-x="645" d="M498 784Q498 755 479 736T430 716Q402 716 382 735T362 784Q362 813 382 832T430 852Q459 852 478 833T498 784ZM287 784Q287 755 268 736T219 716Q190 716 171 735T151 784Q151 813 170 832T219 852Q248 852 267 833T287 784ZM252 0V273L-4 667H158L323 400L488 667H649L394 273V0H252Z"  />
<glyph unicode="&#x17D;" horiz-adv-x="592" d="M241 728L146 872H224L298 783L368 872H446L355 728H241ZM42 0V115L357 542H42V667H543V553L228 125H550V0H42Z"  />
<glyph unicode="&#x17E;" horiz-adv-x="479" d="M42 0V95L260 372H42V483H433V392L211 111H437V0H42ZM178 556L83 700H161L235 611L305 700H383L292 556H178Z"  />
<glyph unicode="&#x192;" horiz-adv-x="454" d="M8 -161L96 238H42V350H120L157 516Q165 552 183 581T228 632T286 665T355 677Q390 677 420 668T473 635L419 531Q401 552 372 552Q345 552 325 535T296 485L266 350H379V238H242L153 -161H8Z"  />
<glyph unicode="&#x2C6;" horiz-adv-x="300" d="M222 556L149 645L78 556H0L92 700H206L300 556H222Z"  />
<glyph unicode="&#x2DC;" horiz-adv-x="327" d="M220 554Q194 554 178 564T150 588T128 611T103 622Q88 622 78 607T67 560H0Q0 624 27 659T108 694Q133 694 149 684T177 661T199 638T224 627Q239 627 249 641T260 688H327Q327 624 300 589T220 554Z"  />
<glyph unicode="&#x2013;" horiz-adv-x="593" d="M30 188V296H563V188H30Z"  />
<glyph unicode="&#x2014;" horiz-adv-x="833" d="M30 188V296H803V188H30Z"  />
<glyph unicode="&#x2018;" horiz-adv-x="255" d="M39 492Q39 549 67 597T142 678L197 633Q173 620 150 593T119 538Q121 540 127 540T139 541Q168 541 187 521T207 469Q207 437 184 414T128 390Q93 390 66 416T39 492Z"  />
<glyph unicode="&#x2019;" horiz-adv-x="255" d="M215 575Q215 518 187 470T112 389L57 434Q69 440 81 451T104 474T123 501T134 529Q129 526 115 526Q86 526 67 546T47 598Q47 630 70 653T126 677Q161 677 188 651T215 575Z"  />
<glyph unicode="&#x201A;" horiz-adv-x="255" d="M215 49Q215 -8 187 -56T112 -137L57 -92Q69 -86 81 -76T104 -52T123 -25T134 2Q132 1 127 0T115 -1Q86 -1 67 19T47 71Q47 104 70 127T126 151Q161 151 188 125T215 49Z"  />
<glyph unicode="&#x201C;" horiz-adv-x="459" d="M40 492Q40 549 68 597T143 678L198 633Q174 620 151 593T120 538Q126 541 140 541Q169 541 188 521T208 469Q208 437 185 414T129 390Q94 390 67 416T40 492ZM244 492Q244 549 272 597T347 678L402 633Q390 627 378 616T354 593T335 566T324 538Q326 540 332 540T344 541Q373 541 392 521T411 469Q411 437 388 414T333 390Q298 390 271 416T244 492Z"  />
<glyph unicode="&#x201D;" horiz-adv-x="459" d="M418 575Q418 518 390 470T315 389L260 434Q272 440 284 451T308 474T327 501T338 529Q336 527 330 527T318 526Q289 526 270 546T251 598Q251 630 274 653T329 677Q364 677 391 651T418 575ZM215 575Q215 518 187 470T112 389L57 434Q69 440 81 451T104 474T123 501T134 529Q129 526 115 526Q86 526 67 546T47 598Q47 630 70 653T126 677Q161 677 188 651T215 575Z"  />
<glyph unicode="&#x201E;" horiz-adv-x="459" d="M215 49Q215 -8 187 -56T112 -137L57 -92Q69 -86 81 -76T104 -52T123 -25T134 2Q132 1 127 0T115 -1Q86 -1 67 19T47 71Q47 104 70 127T126 151Q161 151 188 125T215 49ZM418 49Q418 -8 390 -56T315 -137L260 -92Q272 -86 284 -76T308 -52T327 -25T338 2Q336 1 330 0T318 -1Q289 -1 270 19T251 71Q251 104 274 127T329 151Q364 151 391 125T418 49Z"  />
<glyph unicode="&#x2020;" horiz-adv-x="277" d="M168 526L172 327H104L109 526L20 522V584L109 581L104 677H172L168 581L257 584V522L168 526Z"  />
<glyph unicode="&#x2021;" horiz-adv-x="277" d="M257 522L168 526V332L257 336V274L168 277L172 180H104L108 277L20 274V336L108 332V526L20 522V584L108 581L104 677H172L168 581L257 584V522Z"  />
<glyph unicode="&#x2022;" horiz-adv-x="358" d="M299 242Q299 218 290 197T264 159T227 134T180 124Q155 124 134 133T96 159T71 196T61 242Q61 267 70 288T96 326T133 351T180 361Q205 361 226 352T264 326T289 289T299 242Z"  />
<glyph unicode="&#x2026;" horiz-adv-x="768" d="M209 70Q209 54 203 40T185 14T159 -3T128 -10Q111 -10 97 -4T72 14T55 39T48 70Q48 103 71 127T128 151Q161 151 185 127T209 70ZM465 70Q465 54 459 40T441 14T415 -3T384 -10Q367 -10 353 -4T328 14T311 39T304 70Q304 103 327 127T384 151Q417 151 441 127T465 70ZM721 70Q721 54 715 40T697 14T671 -3T640 -10Q623 -10 609 -4T584 14T567 39T560 70Q560 103 583 127T640 151Q673 151 697 127T721 70Z"  />
<glyph unicode="&#x2030;" horiz-adv-x="1122" d="M365 510Q365 475 353 445T319 393T265 358T195 345Q157 345 126 357T72 392T38 445T26 510Q26 545 38 575T72 628T125 664T195 677Q234 677 265 664T318 629T353 576T365 510ZM205 0H130L556 667H632L205 0ZM732 153Q732 118 720 88T686 36T632 1T562 -12Q524 -12 493 0T439 35T405 88T393 153Q393 188 405 219T439 272T492 308T562 321Q600 321 631 308T685 273T720 219T732 153ZM275 510Q275 556 253 581T195 606Q161 606 139 581T116 510Q116 465 138 440T195 415Q230 415 252 440T275 510ZM642 153Q642 199 620 224T562 250Q527 250 505 225T483 153Q483 108 505 84T562 59Q597 59 619 83T642 153ZM1096 153Q1096 118 1084 88T1050 36T996 1T926 -12Q888 -12 857 0T803 35T769 88T757 153Q757 188 769 219T803 272T856 308T926 321Q964 321 995 308T1049 273T1084 219T1096 153ZM1006 153Q1006 199 984 224T926 250Q891 250 869 225T847 153Q847 108 869 84T926 59Q961 59 983 83T1006 153Z"  />
<glyph unicode="&#x2039;" horiz-adv-x="338" d="M190 63L30 243L190 420H308L148 243L308 63H190Z"  />
<glyph unicode="&#x203A;" horiz-adv-x="338" d="M148 63H30L190 243L30 420H148L308 243L148 63Z"  />
<glyph unicode="&#x20AC;" horiz-adv-x="709" d="M413 -12Q351 -12 297 4T198 52T121 127T72 225H21V304H58Q57 311 57 318T57 333Q57 341 57 349T58 365H21V444H73Q90 498 122 541T198 614T297 661T413 678Q468 678 511 665T589 628T648 576T691 515L569 455Q548 496 506 524T413 552Q351 552 303 523T229 444H473V365H205Q203 357 203 349T203 333Q203 325 203 318T204 304H473V225H228Q254 174 302 144T413 114Q464 114 506 142T569 211L691 152Q673 121 648 92T589 39T512 2T413 -12Z"  />
<glyph unicode="&#x2122;" horiz-adv-x="454" d="M391 447V629L316 447H308L233 629V447H205V667H248L312 507L376 667H419V447H391ZM107 641V447H79V641H17V667H169V641H107Z"  />


</font>
</defs>
</svg>
